<?xml version="1.0" encoding="UTF-8" standalone="no"?>
<!-- Created with Inkscape (http://www.inkscape.org/) -->

<svg
   width="500"
   height="500"
   viewBox="0 0 132.29166 132.29167"
   version="1.1"
   id="svg1"
   inkscape:version="1.3.2 (091e20e, 2023-11-25, custom)"
   sodipodi:docname="drizzle.svg"
   xmlns:inkscape="http://www.inkscape.org/namespaces/inkscape"
   xmlns:sodipodi="http://sodipodi.sourceforge.net/DTD/sodipodi-0.dtd"
   xmlns="http://www.w3.org/2000/svg"
   xmlns:svg="http://www.w3.org/2000/svg">
  <sodipodi:namedview
     id="namedview1"
     pagecolor="#505050"
     bordercolor="#eeeeee"
     borderopacity="1"
     inkscape:showpageshadow="0"
     inkscape:pageopacity="0"
     inkscape:pagecheckerboard="0"
     inkscape:deskcolor="#505050"
     inkscape:document-units="mm"
     inkscape:zoom="1.4866305"
     inkscape:cx="201.12597"
     inkscape:cy="276.46412"
     inkscape:window-width="2560"
     inkscape:window-height="1369"
     inkscape:window-x="-8"
     inkscape:window-y="-8"
     inkscape:window-maximized="1"
     inkscape:current-layer="layer3" />
  <defs
     id="defs1" />
  <g
     inkscape:label="Layer 1"
     inkscape:groupmode="layer"
     id="layer1"
     style="display:none">
    <path
       fill="#010202"
       d="M 34.320904,96.526346 C 24.141939,96.459296 15.875001,88.150114 15.875001,78.003819 c 0,-8.817027 6.081929,-16.187128 14.361268,-18.061172 -0.134617,-0.740648 -0.202184,-1.496404 -0.202184,-2.264595 0,-6.945948 5.650947,-12.596892 12.597035,-12.596892 2.307095,0 4.518458,0.615725 6.447797,1.769533 5.286629,-6.991048 13.444011,-11.085372 22.346827,-11.085372 13.914009,0 25.642234,10.249503 27.723113,23.755395 9.630423,0.648811 17.267813,8.690954 17.267813,18.483103 0,10.112957 -8.22741,18.421509 -18.340357,18.521098 z M 42.63112,50.372827 c -4.028178,0 -7.305368,3.277076 -7.305368,7.305251 0,1.149139 0.260836,2.250758 0.775276,3.273954 0.403982,0.803566 0.372071,1.757389 -0.08475,2.532274 -0.456819,0.774753 -1.27602,1.264391 -2.174804,1.299925 -7.107319,0.28059 -12.674809,6.087348 -12.674809,13.219588 0,7.247626 5.908813,13.18305 13.171675,13.23086 h 63.711873 c 7.197747,-0.07104 13.074777,-6.00583 13.074777,-13.229537 0,-7.297102 -5.93658,-13.233691 -13.233554,-13.233691 -0.271946,0 -0.567536,0.01164 -0.930174,0.03694 -0.702024,0.04897 -1.395394,-0.184494 -1.925336,-0.648017 -0.52994,-0.46366 -0.853306,-1.119456 -0.898393,-1.82211 C 93.372074,50.405529 83.395942,41.05829 71.425742,41.05829 c -8.027416,0 -15.308498,4.103367 -19.476977,10.976464 -0.421939,0.695828 -1.140756,1.158716 -1.948846,1.25521 -0.807702,0.09536 -1.615535,-0.184335 -2.189401,-0.761445 -1.381699,-1.389327 -3.221119,-2.154396 -5.179398,-2.154396 z"
       id="path59"
       style="fill:#070f2b;fill-opacity:1;stroke-width:0.264583" />
  </g>
  <g
     inkscape:groupmode="layer"
     id="layer2"
     inkscape:label="Layer 2"
     style="display:none">
    <path
       id="path9"
       style="fill:#070f2b;fill-opacity:1;stroke-width:0.264583"
       d="m 99.821816,102.46765 c -0.6771,0 -1.3543,-0.25826 -1.87095,-0.77488 L 87.701621,91.443518 c -1.033145,-1.033278 -1.033145,-2.708619 0,-3.741896 1.033278,-1.033278 2.708619,-1.033278 3.741897,0 l 10.249252,10.249243 c 1.03314,1.033278 1.03314,2.708625 0,3.741905 -0.51663,0.51662 -1.19386,0.77488 -1.870954,0.77488 z M 42.719095,45.364931 c -0.677095,0 -1.354296,-0.258252 -1.870948,-0.774888 L 30.598908,34.340799 c -1.033142,-1.033269 -1.033142,-2.708618 0,-3.74189 1.03327,-1.03327 2.708614,-1.03327 3.741891,0 l 10.249244,10.249243 c 1.033145,1.03327 1.033145,2.708619 0,3.741891 -0.516625,0.516634 -1.193853,0.774888 -1.870948,0.774888 z M 32.469851,102.46765 c -0.67709,0 -1.354309,-0.25826 -1.870945,-0.77488 -1.033143,-1.03328 -1.033143,-2.708627 0,-3.741905 L 40.848147,87.701622 c 1.033277,-1.033278 2.708619,-1.033278 3.741896,0 1.033145,1.033277 1.033145,2.708618 0,3.741896 L 34.340799,101.69277 c -0.516625,0.51662 -1.193853,0.77488 -1.870948,0.77488 z M 89.572569,45.364931 c -0.677095,0 -1.354322,-0.258252 -1.870948,-0.774888 -1.033145,-1.033269 -1.033145,-2.708619 0,-3.741891 L 97.950866,30.598909 c 1.03328,-1.03327 2.708624,-1.03327 3.741904,0 1.03314,1.033269 1.03314,2.708619 0,3.74189 L 91.443518,44.590043 c -0.516652,0.516634 -1.193853,0.774888 -1.870949,0.774888 z M 113.77084,68.791666 H 99.483336 c -1.46127,0 -2.64584,-1.18454 -2.64584,-2.645834 0,-1.461267 1.18457,-2.645833 2.64584,-2.645833 h 14.287504 c 1.46129,0 2.64583,1.184566 2.64583,2.645833 0,1.461294 -1.18454,2.645834 -2.64583,2.645834 z m -80.962507,0 h -14.2875 c -1.461281,0 -2.645833,-1.18454 -2.645833,-2.645834 0,-1.461267 1.184552,-2.645833 2.645833,-2.645833 h 14.2875 c 1.461293,0 2.645833,1.184566 2.645833,2.645833 0,1.461294 -1.18454,2.645834 -2.645833,2.645834 z m 33.337499,47.625004 c -1.461267,0 -2.645833,-1.18454 -2.645833,-2.64583 V 99.483332 c 0,-1.461267 1.184566,-2.645833 2.645833,-2.645833 1.461294,0 2.645834,1.184566 2.645834,2.645833 v 14.287508 c 0,1.46129 -1.18454,2.64583 -2.645834,2.64583 z m 0,-80.962504 c -1.461267,0 -2.645833,-1.184553 -2.645833,-2.645833 v -14.2875 c 0,-1.46128 1.184566,-2.645833 2.645833,-2.645833 1.461294,0 2.645834,1.184553 2.645834,2.645833 v 14.2875 c 0,1.46128 -1.18454,2.645833 -2.645834,2.645833 z m 0.02585,57.175849 c -14.589178,0 -26.458333,-11.869182 -26.458333,-26.458333 0,-14.589178 11.869155,-26.458343 26.458333,-26.458343 14.589151,0 26.458334,11.869165 26.458334,26.458343 0,14.589151 -11.869183,26.458333 -26.458334,26.458333 z m 0,-47.62501 c -11.671379,0 -21.166666,9.495298 -21.166666,21.166677 0,11.671379 9.495287,21.166667 21.166666,21.166667 11.671379,0 21.166666,-9.495288 21.166666,-21.166667 0,-11.671379 -9.495287,-21.166677 -21.166666,-21.166677 z" />
  </g>
  <g
     inkscape:groupmode="layer"
     id="layer3"
     inkscape:label="Layer 3"
     style="display:inline">
    <path
       id="path29"
       style="stroke-width:0.264583;fill:#070f2b;fill-opacity:1"
       d="m 37.212214,123.58138 c -0.643625,0 -1.28725,-0.24572 -1.778185,-0.73702 -0.981075,-0.98211 -0.980307,-2.5736 0.0026,-3.55471 L 47.899502,106.8394 c 0.982107,-0.98108 2.57347,-0.98018 3.554545,0.003 0.981075,0.98212 0.980308,2.57362 -0.0026,3.55469 l -12.462801,12.45029 c -0.490669,0.49027 -1.133527,0.73533 -1.776386,0.73533 z m 36.195982,-2.63678 c -0.64389,0 -1.28752,-0.24585 -1.77845,-0.73729 -0.98108,-0.98224 -0.98005,-2.57374 0.003,-3.5547 l 9.82602,-9.81348 c 0.98211,-0.98107 2.5735,-0.97991 3.55457,0.003 0.98108,0.98224 0.98004,2.57373 -0.003,3.5547 l -9.82601,9.81348 c -0.49067,0.49014 -1.13326,0.73509 -1.77612,0.73509 z m -10.78693,-6.03181 c -0.64363,0 -1.28725,-0.24559 -1.778188,-0.73703 -0.981075,-0.98211 -0.980308,-2.5736 0.0026,-3.5547 l 3.785318,-3.78166 c 0.98211,-0.98084 2.57347,-0.98044 3.55455,0.003 0.98107,0.98212 0.9803,2.57362 -0.003,3.55469 l -3.78531,3.78169 c -0.49065,0.49014 -1.13351,0.73533 -1.77636,0.73533 z m -33.319432,0 c -0.643625,0 -1.287251,-0.24572 -1.778185,-0.73716 -0.981075,-0.98211 -0.980281,-2.57347 0.0026,-3.55468 l 3.785552,-3.78168 c 0.981843,-0.98081 2.573232,-0.98018 3.554572,0.003 0.981075,0.9821 0.980307,2.57349 -0.0026,3.55469 l -3.785553,3.78167 c -0.490669,0.49016 -1.133528,0.73522 -1.776386,0.73522 z m 20.854564,13.66326 c -0.643652,0 -1.287277,-0.24571 -1.778185,-0.73705 -0.981101,-0.9821 -0.980308,-2.5736 0.0026,-3.55467 l 6.002734,-5.99668 c 0.982107,-0.98094 2.573496,-0.98028 3.554571,0.003 0.981075,0.9821 0.980282,2.5736 -0.0026,3.55467 l -6.002735,5.99668 c -0.49067,0.49027 -1.133528,0.73536 -1.776359,0.73536 z M 28.105547,102.3132 C 18.819016,102.2521 11.27736,94.671927 11.27736,85.415638 c 0,-8.005074 5.495528,-14.70271 12.993528,-16.451712 -0.110331,-0.642726 -0.165629,-1.297728 -0.165629,-1.962917 0,-6.357117 5.171784,-11.529033 11.529007,-11.529033 2.075841,0 4.067201,0.544671 5.811546,1.566571 4.813644,-6.312403 12.208563,-10.006621 20.276024,-10.006621 12.6323,0 23.28513,9.281477 25.21731,21.528934 8.74212,0.636773 15.660024,7.953004 15.660024,16.854778 0,9.225651 -7.505724,16.805302 -16.731274,16.896262 z m 7.528719,-41.814115 c -3.585051,0 -6.501924,2.91674 -6.501924,6.501924 0,1.022932 0.23204,2.00324 0.689875,2.913512 0.383963,0.763508 0.353721,1.669653 -0.08035,2.405803 -0.433811,0.736124 -1.212056,1.201341 -2.066026,1.235049 -6.376617,0.251804 -11.371394,5.461423 -11.371394,11.860265 0,6.502453 5.301482,11.827563 11.817614,11.870478 h 57.721015 c 6.45621,-0.06371 11.72901,-5.388318 11.72901,-11.869314 0,-6.546611 -5.32627,-11.87278 -11.87291,-11.87278 -0.24495,0 -0.51004,0.01032 -0.83484,0.03294 -0.66945,0.04755 -1.32575,-0.175445 -1.82883,-0.615738 -0.50358,-0.440399 -0.81055,-1.063361 -0.85344,-1.730904 -0.68961,-10.749598 -9.67666,-19.170148 -20.46023,-19.170148 -7.231347,0 -13.790897,3.696679 -17.546234,9.888564 -0.401003,0.660929 -1.083654,1.100693 -1.85129,1.192292 -0.768164,0.0912 -1.535059,-0.175313 -2.079995,-0.723212 -1.229889,-1.236609 -2.867263,-1.917568 -4.610047,-1.917568 z m 76.251944,13.256551 c -0.46482,0 -0.93509,-0.128693 -1.35546,-0.398436 L 99.479464,66.264224 c -1.16813,-0.749829 -1.507378,-2.304759 -0.75758,-3.473053 0.74983,-1.168268 2.304526,-1.507781 3.473186,-0.757688 l 11.05125,7.092977 c 1.16817,0.749829 1.50741,2.304759 0.75759,3.473026 -0.48006,0.74803 -1.29035,1.15615 -2.1177,1.15615 z M 50.572641,34.181429 c -0.464847,0 -0.935091,-0.128675 -1.355223,-0.398426 L 38.165905,26.690024 c -1.1684,-0.749824 -1.507675,-2.304769 -0.757846,-3.473042 0.749829,-1.168273 2.304785,-1.507403 3.472921,-0.757706 l 11.051513,7.092979 c 1.168427,0.749824 1.507675,2.304769 0.757846,3.473042 -0.480086,0.748017 -1.290373,1.156132 -2.117698,1.156132 z m 41.472665,-9.048028 c -0.46484,0 -0.93509,-0.128675 -1.35548,-0.398425 -1.16814,-0.749824 -1.50741,-2.30477 -0.75758,-3.473043 l 7.0931,-11.051392 c 0.74983,-1.1682755 2.304528,-1.5074025 3.473194,-0.757706 1.16814,0.749824 1.50738,2.30477 0.75758,3.473043 L 94.163006,23.97727 c -0.48008,0.748016 -1.29037,1.156131 -2.1177,1.156131 z M 105.5729,44.381193 c -1.15625,0 -2.19702,-0.802405 -2.45334,-1.978303 -0.2961,-1.356249 0.56353,-2.695572 1.91979,-2.991549 l 12.92505,-2.819852 c 1.35909,-0.296235 2.69595,0.56392 2.99154,1.920039 0.29612,1.356249 -0.56354,2.695572 -1.91977,2.991548 l -12.92505,2.819853 c -0.18063,0.0394 -0.36097,0.05826 -0.53822,0.05826 z M 68.628626,20.892188 c -1.15625,0 -2.19702,-0.802404 -2.45332,-1.978302 L 63.524546,6.7642401 c -0.29609,-1.3562489 0.56354,-2.6955724 1.91979,-2.9915485 1.35883,-0.2962354 2.69598,0.5639197 2.99154,1.9200389 l 2.65076,12.1496455 c 0.29609,1.356249 -0.56354,2.695572 -1.91979,2.991549 -0.18061,0.0394 -0.36095,0.05826 -0.53822,0.05826 z m 22.29477,44.363444 c -0.66558,0 -1.32987,-0.262652 -1.82417,-0.783669 -0.95525,-1.00719 -0.91339,-2.59805 0.0938,-3.553407 3.83386,-3.636857 5.94537,-8.54882 5.94537,-13.831067 0,-10.509824 -8.55038,-19.060078 -19.06008,-19.060078 -9.23097,0 -17.11886,6.580994 -18.755969,15.648141 -0.246751,1.365808 -1.55493,2.273117 -2.919968,2.026877 -1.366335,-0.246626 -2.27375,-1.554041 -2.027,-2.920105 2.069386,-11.462478 12.038017,-19.781996 23.702937,-19.781996 13.28163,0 24.087164,10.805413 24.087164,24.087161 0,6.675305 -2.668064,12.882535 -7.512714,17.478136 -0.48601,0.461195 -1.10847,0.690007 -1.72937,0.690007 z" />
  </g>
</svg>
