<?xml version="1.0" encoding="UTF-8" standalone="no"?>
<!-- Created with Inkscape (http://www.inkscape.org/) -->

<svg
   width="500"
   height="500"
   viewBox="0 0 132.29166 132.29167"
   version="1.1"
   id="svg1"
   inkscape:version="1.3.2 (091e20e, 2023-11-25, custom)"
   sodipodi:docname="humidity.svg"
   xmlns:inkscape="http://www.inkscape.org/namespaces/inkscape"
   xmlns:sodipodi="http://sodipodi.sourceforge.net/DTD/sodipodi-0.dtd"
   xmlns="http://www.w3.org/2000/svg"
   xmlns:svg="http://www.w3.org/2000/svg">
  <sodipodi:namedview
     id="namedview1"
     pagecolor="#505050"
     bordercolor="#eeeeee"
     borderopacity="1"
     inkscape:showpageshadow="0"
     inkscape:pageopacity="0"
     inkscape:pagecheckerboard="0"
     inkscape:deskcolor="#505050"
     inkscape:document-units="mm"
     inkscape:zoom="1.4866305"
     inkscape:cx="266.37419"
     inkscape:cy="294.626"
     inkscape:window-width="2560"
     inkscape:window-height="1369"
     inkscape:window-x="-8"
     inkscape:window-y="-8"
     inkscape:window-maximized="1"
     inkscape:current-layer="layer1" />
  <defs
     id="defs1" />
  <g
     inkscape:label="Layer 1"
     inkscape:groupmode="layer"
     id="layer1">
    <path
       id="path49"
       style="stroke-width:0.264583;fill:#e4e3f0;fill-opacity:1"
       d="m 40.728517,100.34943 c -0.67773,0 -1.355222,-0.25863 -1.871715,-0.775915 -1.032748,-1.03378 -1.031981,-2.708884 0.0026,-3.741632 L 52.615717,82.089584 c 1.03378,-1.032748 2.709386,-1.031981 3.741633,0.0026 1.03275,1.03378 1.03198,2.708883 -0.003,3.741631 L 42.598433,99.576187 c -0.516519,0.515963 -1.193218,0.774093 -1.869916,0.774093 z m 39.422913,0.52917 c -0.67826,0 -1.35649,-0.25916 -1.87351,-0.77745 -1.03172,-1.034841 -1.02942,-2.709918 0.005,-3.741899 l 5.02502,-5.011076 c 1.03481,-1.031452 2.70965,-1.029917 3.74189,0.0053 1.03172,1.034811 1.02939,2.709915 -0.005,3.741869 l -5.02502,5.011076 c -0.51649,0.51496 -1.19242,0.77229 -1.86835,0.77229 z M 68.77435,90.781279 c -0.67773,0 -1.35496,-0.258631 -1.87172,-0.775917 -1.03274,-1.03378 -1.03198,-2.708884 0.003,-3.741632 l 4.1783,-4.174146 c 1.03378,-1.032775 2.70888,-1.031981 3.74163,0.0026 1.03275,1.03378 1.03198,2.708883 -0.003,3.741631 l -4.1783,4.174173 c -0.51652,0.51599 -1.19322,0.774091 -1.86992,0.774091 z m -36.777083,0 c -0.67773,0 -1.354958,-0.258631 -1.871715,-0.775917 -1.032748,-1.03378 -1.031981,-2.708884 0.0026,-3.741632 l 4.1783,-4.174146 c 1.03378,-1.032775 2.708883,-1.031981 3.741631,0.0026 1.032748,1.03378 1.031981,2.708883 -0.0026,3.741631 l -4.1783,4.174173 c -0.516519,0.51599 -1.193217,0.774091 -1.869916,0.774091 z m 23.01875,15.081251 c -0.67773,0 -1.355222,-0.25863 -1.871716,-0.77592 -1.032748,-1.03378 -1.03198,-2.70912 0.0026,-3.74163 l 6.625689,-6.618976 c 1.03378,-1.032748 2.70942,-1.03198 3.74163,0.0026 1.03275,1.03378 1.03199,2.709122 -0.003,3.741632 l -6.6257,6.618974 c -0.51652,0.51599 -1.19321,0.77409 -1.869909,0.77409 z M 99.04202,91.742722 c -6.60426,0 -11.97732,-5.382102 -11.97732,-11.997717 0,-1.461135 1.1847,-2.645833 2.64584,-2.645833 1.46116,0 2.64583,1.184698 2.64583,2.645833 0,3.697711 2.99905,6.70605 6.68565,6.70605 3.70081,0 6.71174,-3.001354 6.71174,-6.690281 0,-3.689164 -3.03392,-6.690545 -6.76341,-6.690545 H 27.775046 c -1.461161,0 -2.645833,-1.184672 -2.645833,-2.645833 0,-1.461161 1.184672,-2.645833 2.645833,-2.645833 H 98.99035 c 6.64713,0 12.05508,5.375116 12.05508,11.982211 0,6.606831 -5.3847,11.981948 -12.00341,11.981948 z M 76.58758,50.580646 h -54.1042 c -1.461162,0 -2.645834,-1.184672 -2.645834,-2.645833 0,-1.461162 1.184672,-2.645833 2.645834,-2.645833 h 54.1042 c 3.73697,0 6.77709,-3.043476 6.77709,-6.784605 0,-3.740838 -3.00445,-6.78434 -6.69751,-6.78434 -3.67109,0 -6.65773,3.036253 -6.65773,6.768597 0,1.461135 -1.1847,2.645834 -2.64584,2.645834 -1.46116,0 -2.64583,-1.184699 -2.64583,-2.645834 0,-6.649984 5.36038,-12.060263 11.9494,-12.060263 6.61096,0 11.98917,5.417237 11.98917,12.076006 0,6.658769 -5.41411,12.076271 -12.06875,12.076271 z m 26.25187,11.377083 H 35.97713 c -1.461162,0 -2.645834,-1.184671 -2.645834,-2.645833 0,-1.461161 1.184672,-2.645833 2.645834,-2.645833 h 66.86232 c 2.34329,0 4.323,-2.013056 4.323,-4.395867 0,-2.423874 -1.92108,-4.39584 -4.28244,-4.39584 -2.35024,0 -4.26227,1.958022 -4.26227,4.364593 0,1.461135 -1.18468,2.645833 -2.64584,2.645833 -1.46113,0 -2.64583,-1.184698 -2.64583,-2.645833 0,-5.324475 4.2858,-9.65626 9.55394,-9.65626 5.27926,0 9.57411,4.345728 9.57411,9.687507 0,5.341805 -4.31318,9.687533 -9.61467,9.687533 z" />
  </g>
</svg>
